<svg xmlns="http://www.w3.org/2000/svg" version="1.1" xmlns:xlink="http://www.w3.org/1999/xlink" xmlns:svgjs="http://svgjs.com/svgjs" width="1920" height="950" preserveAspectRatio="none" viewBox="0 0 1920 950"><g mask="url(&quot;#SvgjsMask1021&quot;)" fill="none"><rect width="1920" height="950" x="0" y="0" fill="rgba(162, 0, 37, 1)"></rect><path d="M1984 950L0 950 L0 614.03Q-5.79 512.24, 96 506.44Q161.92 412.36, 256 478.28Q340.28 466.56, 352 550.84Q416.07 454.91, 512 518.99Q639.5 486.49, 672 613.99Q688.42 470.41, 832 486.84Q926.98 421.82, 992 516.8Q1079.27 508.07, 1088 595.34Q1112.06 459.4, 1248 483.46Q1342.3 417.76, 1408 512.06Q1446.76 454.82, 1504 493.59Q1627.39 456.98, 1664 580.37Q1768.63 525, 1824 629.63Q1868.27 513.9, 1984 558.17z" fill="rgba(57, 4, 16, 1)"></path><path d="M2016 950L0 950 L0 594.68Q162.32 597, 160 759.32Q238.57 677.89, 320 756.47Q327.23 603.7, 480 610.93Q566.91 537.84, 640 624.75Q742.31 567.06, 800 669.37Q905.68 615.05, 960 720.73Q966.8 631.53, 1056 638.32Q1117.27 539.59, 1216 600.85Q1345.15 570, 1376 699.16Q1467.89 631.06, 1536 722.95Q1538.29 629.24, 1632 631.52Q1673.2 576.72, 1728 617.92Q1770.35 564.26, 1824 606.61Q1897.59 584.2, 1920 657.8Q1953.57 595.37, 2016 628.94z" fill="rgba(103, 7, 29, 1)"></path><path d="M2048 950L0 950 L0 796.45Q84.78 721.23, 160 806.01Q269.43 755.44, 320 864.88Q346.46 731.34, 480 757.79Q519.3 701.09, 576 740.38Q655.43 723.81, 672 803.23Q768.42 739.65, 832 836.08Q891.64 799.72, 928 859.36Q930.51 765.88, 1024 768.39Q1064.76 713.15, 1120 753.91Q1214.05 687.96, 1280 782.01Q1369.2 711.21, 1440 800.41Q1510.93 775.34, 1536 846.27Q1566.33 780.6, 1632 810.92Q1704.06 722.98, 1792 795.05Q1826.01 733.06, 1888 767.07Q1995.15 714.22, 2048 821.37z" fill="rgba(162, 0, 37, 1)"></path><path d="M2016 950L0 950 L0 913.28Q40.19 857.47, 96 897.66Q117.76 823.41, 192 845.17Q245.65 802.82, 288 856.47Q341.39 813.87, 384 867.26Q447.14 834.4, 480 897.54Q533.72 855.25, 576 908.97Q691.06 864.03, 736 979.08Q757.33 904.41, 832 925.74Q902.19 835.93, 992 906.13Q1005.14 823.27, 1088 836.42Q1145.46 797.88, 1184 855.34Q1280.65 856, 1280 952.65Q1369.88 882.53, 1440 972.41Q1490.78 863.19, 1600 913.97Q1634.79 852.76, 1696 887.56Q1758.86 790.42, 1856 853.28Q1988.64 825.92, 2016 958.57z" fill="white"></path></g><defs><mask id="SvgjsMask1021"><rect width="1920" height="950" fill="#ffffff"></rect></mask></defs></svg>