<svg id="Shiny_Overlay" data-name="Shiny Overlay" xmlns="http://www.w3.org/2000/svg" xmlns:xlink="http://www.w3.org/1999/xlink" width="1920" height="950" viewBox="0 0 1920 950"><defs><linearGradient id="linear-gradient" x1="0.126" y1="-0.516" x2="0.874" y2="2.537" gradientUnits="objectBoundingBox"><stop offset="0" stop-color="#390410"/><stop offset="1" stop-color="#a20025"/></linearGradient></defs><rect id="Rectángulo_26" data-name="Rectángulo 26" width="1920" height="950" fill="url(#linear-gradient)"/><path id="Trazado_10" data-name="Trazado 10" d="M1920,0H1164.34L1920,.09Z" fill="rgba(255,255,255,0.1)"/><path id="Trazado_11" data-name="Trazado 11" d="M1164.34,0,1920,.09V330.93L1105.31,0Z" fill="rgba(255,255,255,0.07)"/><path id="Trazado_12" data-name="Trazado 12" d="M1105.31,0,1920,330.93v17.29L710.27,0Z" fill="rgba(255,255,255,0.05)"/><path id="Trazado_13" data-name="Trazado 13" d="M710.27,0,1920,348.22V606.29L288.66,0Z" fill="rgba(255,255,255,0.02)"/><path id="Trazado_14" data-name="Trazado 14" d="M0,950H456.92L0,767.38Z" fill="rgba(0,0,0,0.1)"/><path id="Trazado_15" data-name="Trazado 15" d="M0,767.38,456.92,950h594.99L0,445.13Z" fill="rgba(0,0,0,0.07)"/><path id="Trazado_16" data-name="Trazado 16" d="M0,445.13,1051.91,950H1309.2L0,382.19Z" fill="rgba(0,0,0,0.05)"/><path id="Trazado_17" data-name="Trazado 17" d="M0,382.19,1309.2,950h52.58L0,280.21Z" fill="rgba(0,0,0,0.02)"/></svg>
