<svg xmlns="http://www.w3.org/2000/svg" version="1.1" xmlns:xlink="http://www.w3.org/1999/xlink" xmlns:svgjs="http://svgjs.com/svgjs" width="1920" height="950" preserveAspectRatio="none" viewBox="0 0 1920 950"><g mask="url(&quot;#SvgjsMask2030&quot;)" fill="none"><rect width="1920" height="950" x="0" y="0" fill="url(#SvgjsLinearGradient2031)"></rect><path d="M1920 0L1164.3400000000001 0L1920 0.09z" fill="rgba(255, 255, 255, .1)"></path><path d="M1164.3400000000001 0L1920 0.09L1920 330.92999999999995L1105.3100000000002 0z" fill="rgba(255, 255, 255, .075)"></path><path d="M1105.31 0L1920 330.92999999999995L1920 348.21999999999997L710.27 0z" fill="rgba(255, 255, 255, .05)"></path><path d="M710.27 0L1920 348.21999999999997L1920 606.29L288.65999999999997 0z" fill="rgba(255, 255, 255, .025)"></path><path d="M0 950L456.92 950L0 767.38z" fill="rgba(0, 0, 0, .1)"></path><path d="M0 767.38L456.92 950L1051.91 950L0 445.13z" fill="rgba(0, 0, 0, .075)"></path><path d="M0 445.13L1051.91 950L1309.2 950L0 382.19z" fill="rgba(0, 0, 0, .05)"></path><path d="M0 382.19000000000005L1309.2 950L1361.78 950L0 280.21000000000004z" fill="rgba(0, 0, 0, .025)"></path></g><defs><mask id="SvgjsMask2030"><rect width="1920" height="950" fill="#ffffff"></rect></mask><linearGradient x1="12.63%" y1="-25.53%" x2="87.37%" y2="125.53%" gradientUnits="userSpaceOnUse" id="SvgjsLinearGradient2031"><stop stop-color="rgba(57, 4, 16, 1)" offset="0.27"></stop><stop stop-color="rgba(162, 0, 37, 1)" offset="1"></stop></linearGradient></defs></svg>